HIERARCHY
ROOT Ischium
{
  OFFSET 0.0 0.0 0.0
  CHANNELS 6 Xposition Yposition Zposition Yrotation Zrotation Xrotation
  JOINT Stifle
  {
    OFFSET 11.4 -15.900000000000006 0.0
    CHANNELS 3 Yrotation Zrotation Xrotation
    JOINT Offhindhock
    {
      OFFSET -13.200000000000001 -14.699999999999989 0.0
      CHANNELS 3 Yrotation Zrotation Xrotation
      JOINT Offhindfetlock
      {
        OFFSET 0.6000000000000001 -18.30000000000001 0.0
        CHANNELS 3 Yrotation Zrotation Xrotation
        End Site
        {
          OFFSET -2.7 -6.599999999999994 0.0
        }
      }
    }
    JOINT Nearhindhock
    {
      OFFSET 6.0 -16.799999999999997 0.0
      CHANNELS 3 Yrotation Zrotation Xrotation
      JOINT Nearhindfetlock
      {
        OFFSET 3.8999999999999986 -17.700000000000003 0.0
        CHANNELS 3 Yrotation Zrotation Xrotation
        End Site
        {
          OFFSET 5.400000000000002 -5.699999999999989 0.0
        }
      }
    }
  }
  JOINT Hip
  {
    OFFSET 10.799999999999999 5.399999999999999 0.0
    CHANNELS 3 Yrotation Zrotation Xrotation
    JOINT Wither
    {
      OFFSET 37.8 5.700000000000003 0.0
      CHANNELS 3 Yrotation Zrotation Xrotation
      JOINT Eye
      {
        OFFSET 42.900000000000006 -3.6000000000000014 0.0
        CHANNELS 3 Yrotation Zrotation Xrotation
        End Site
        {
          OFFSET 10.199999999999989 -15.299999999999997 0.0
        }
      }
      JOINT Midshoulder
      {
        OFFSET 8.700000000000003 -9.300000000000004 0.0
        CHANNELS 3 Yrotation Zrotation Xrotation
        JOINT Shoulder
        {
          OFFSET 2.3999999999999915 -12.599999999999994 0.0
          CHANNELS 3 Yrotation Zrotation Xrotation
          JOINT Girth
          {
            OFFSET -17.39999999999999 -8.700000000000003 0.0
            CHANNELS 3 Yrotation Zrotation Xrotation
            JOINT Nearknee
            {
              OFFSET 37.2 -12.900000000000006 0.0
              CHANNELS 3 Yrotation Zrotation Xrotation
              JOINT Nearfrontfetlock
              {
                OFFSET 6.0 -12.899999999999991 0.0
                CHANNELS 3 Yrotation Zrotation Xrotation
                End Site
                {
                  OFFSET 5.699999999999989 -7.200000000000003 0.0
                }
              }
            }
          }
          JOINT Elbow
          {
            OFFSET -17.39999999999999 -6.0 0.0
            CHANNELS 3 Yrotation Zrotation Xrotation
            JOINT Offknee
            {
              OFFSET 1.5 -20.10000000000001 0.0
              CHANNELS 3 Yrotation Zrotation Xrotation
              JOINT Offfrontfetlock
              {
                OFFSET -3.6000000000000014 -13.199999999999989 0.0
                CHANNELS 3 Yrotation Zrotation Xrotation
                End Site
                {
                  OFFSET 2.3999999999999986 -7.800000000000011 0.0
                }
              }
            }
          }
        }
      }
    }
  }
}
MOTION
Frames: 9
Frame Time: 0.016666666666666666
5.4 -64.5 0.0 0.0 0.0 0.0 0.0 -0.0 0.0 0.0 -0.0 0.0 0.0 -0.0 0.0 0.0 -0.0 0.0 0.0 -0.0 0.0 0.0 -0.0 0.0 0.0 -0.0 0.0 0.0 -0.0 0.0 0.0 -0.0 0.0 0.0 -0.0 0.0 0.0 -0.0 0.0 0.0 -0.0 0.0 0.0 -0.0 0.0 0.0 -0.0 0.0 0.0 -0.0 0.0 0.0 -0.0 0.0
6.9 -64.2 0.0 0.0 0.0 0.0 0.0 2.8771171090161345 0.0 0.0 5.713087783389646 0.0 0.0 5.843948352845662 0.0 0.0 -5.83879871679167 0.0 0.0 -0.0 0.0 0.0 1.3322198538694188 0.0 0.0 -0.9510401353832404 0.0 0.0 1.1955208496121983 0.0 0.0 0.9997719837975607 0.0 0.0 -12.181478894858916 0.0 0.0 2.683775159469046 0.0 0.0 -1.7873216705802897 0.0 0.0 2.205776434358464 0.0 0.0 0.35890964178786233 0.0 0.0 -0.85130510851886 0.0 0.0 2.4508526377709496 0.016666666666666666
8.7 -63.9 0.0 0.0 0.0 0.0 0.0 3.585864899249964 0.0 0.0 6.863117633688716 0.0 0.0 7.415431152111837 0.0 0.0 -9.593134262730356 0.0 0.0 -3.7527688175477554 0.0 0.0 0.6902771978656084 0.0 0.0 -1.7324592272038166 0.0 0.0 2.4108549364467606 0.0 0.0 2.9142384382506323 0.0 0.0 -13.44729863362971 0.0 0.0 3.179830119864279 0.0 0.0 -1.4810345930495847 0.0 0.0 -0.1687646945901329 0.0 0.0 8.571689831074984 0.0 0.0 -2.4495903358389195 0.0 0.0 -7.265446899839096 0.03333333333333333
10.2 -62.4 0.0 0.0 0.0 0.0 0.0 2.0851858440240947 0.0 0.0 8.457165254220394 0.0 0.0 9.432055026734924 0.0 0.0 -15.186664996664016 0.0 0.0 -3.6055633134065337 0.0 0.0 -2.3373058591235125 0.0 0.0 -4.286079311016043 0.0 0.0 3.1832600339544217 0.0 0.0 -2.489552921999274 0.0 0.0 -5.704690007548059 0.0 0.0 -1.3639275316031902 0.0 0.0 -3.729593940989543 0.0 0.0 1.030488699006314 0.0 0.0 2.345016231774372 0.0 0.0 -9.462322208025535 0.0 0.0 -4.840112488846913 0.05
11.1 -62.4 0.0 0.0 0.0 0.0 0.0 2.0851858440239197 0.0 0.0 11.106838848846468 0.0 0.0 12.403218288685473 0.0 0.0 -15.116051550146677 0.0 0.0 -4.572629563449197 0.0 0.0 -4.497151614667667 0.0 0.0 -3.091642195370451 0.0 0.0 4.390452733526607 0.0 0.0 -6.517816588484426 0.0 0.0 -10.784297867562595 0.0 0.0 0.9877603996401728 0.0 0.0 -2.9312075062519654 0.0 0.0 -4.248454529361156 0.0 0.0 2.0991131085037935 0.0 0.0 -8.60020728347933 0.0 0.0 -5.1547641307462 0.06666666666666667
13.2 -62.7 0.0 0.0 0.0 0.0 0.0 1.7655474333221057 0.0 0.0 13.6850990624084 0.0 0.0 12.386634850794543 0.0 0.0 -17.775946610767946 0.0 0.0 -5.7715178194208505 0.0 0.0 0.0 0.0 0.0 -3.9272619484481037 0.0 0.0 4.796798966835612 0.0 0.0 -6.483772754396077 0.0 0.0 -15.41976129446523 0.0 0.0 -1.0050860052545045 0.0 0.0 -6.198955381160064 0.0 0.0 -3.8191861173519968 0.0 0.0 2.345016231774372 0.0 0.0 -7.684481492062126 0.0 0.0 -6.781108237087612 0.08333333333333333
14.4 -62.4 0.0 0.0 0.0 0.0 0.0 2.3791333950837736 0.0 0.0 10.629505604655437 0.0 0.0 18.571670163507218 0.0 0.0 -23.599010287090852 0.0 0.0 -7.662301174701317 0.0 0.0 -1.1573330681294884 0.0 0.0 -4.792587193238808 0.0 0.0 3.1484544619395547 0.0 0.0 -8.215519222401506 0.0 0.0 -4.928284282133657 0.0 0.0 -3.231009900368503 0.0 0.0 -7.4398251562908335 0.0 0.0 -4.66134617450801 0.0 0.0 -0.24757281512145085 0.0 0.0 -9.385208150263486 0.0 0.0 -10.774473488455635 0.1
23.1 -63.6 0.0 0.0 0.0 0.0 0.0 14.554619709648131 0.0 0.0 44.24407519040836 0.0 0.0 27.37094888926161 0.0 0.0 -39.95139383028199 0.0 0.0 -21.009564345541445 0.0 0.0 3.0393995689267683 0.0 0.0 -2.340752544293769 0.0 0.0 -0.5002491377623399 0.0 0.0 -12.834410403474356 0.0 0.0 -1.0567193161608266 0.0 0.0 5.754565331102122 0.0 0.0 -13.751035731423542 0.0 0.0 -16.472760630409766 0.0 0.0 15.598549042380249 0.0 0.0 6.401889504205874 0.0 0.0 -19.840698083968356 0.11666666666666667
24.6 -63.6 0.0 0.0 0.0 0.0 0.0 13.664659762421321 0.0 0.0 47.47551563361245 0.0 0.0 25.59655417899176 0.0 0.0 -43.774807177495916 0.0 0.0 -24.52069994243959 0.0 0.0 3.608468852566309 0.0 0.0 -2.0817073272954825 0.0 0.0 -3.3333033873204116 0.0 0.0 -12.355359865083534 0.0 0.0 -5.885205413774776 0.0 0.0 5.984952315115388 0.0 0.0 -16.628661233649648 0.0 0.0 -11.771351840097683 0.0 0.0 14.04507178519299 0.0 0.0 13.38223091963927 0.0 0.0 -22.313473325769703 0.13333333333333333
